<?xml version="1.0" encoding="UTF-8"?>
<svg id="Layer_1" xmlns="http://www.w3.org/2000/svg" version="1.1" viewBox="0 0 319 61">
  <!-- Generator: Adobe Illustrator 29.5.1, SVG Export Plug-In . SVG Version: 2.1.0 Build 141)  -->
  <defs>
    <style>
      .st0 {
        fill: #fff;
      }
    </style>
  </defs>
  <g>
    <path class="st0" d="M67.5,23.5v5.7h10.4v3.1h-10.4v6.2h11v3.5h-15.2v-22.1h15.1v3.5h-10.9Z"/>
    <path class="st0" d="M81.7,42v-22.1h10c3,0,5,.5,6,1.6,1,1,1.6,3,1.6,6s-.5,4.9-1.5,5.9c-1,1-3,1.5-6,1.5h-1s-4.9,0-4.9,0v7.1h-4.2ZM85.8,31.4h4.8c1.9,0,3.1-.2,3.6-.7.5-.4.8-1.5.8-3.1s-.2-3-.6-3.5c-.4-.4-1.5-.7-3.3-.7h-5.2v7.9Z"/>
    <path class="st0" d="M106.1,19.9v22.1h-4.2v-22.1h4.2Z"/>
    <path class="st0" d="M123.7,34.1h4.2v.8c0,3.1-.6,5.1-1.7,6-1.1.9-3.6,1.4-7.4,1.4s-7-.7-8-2.1c-1-1.4-1.5-5.2-1.5-11.4s.7-6,2-7.2c1.4-1.1,4.2-1.7,8.5-1.7s5.3.5,6.3,1.4c1.1.9,1.6,2.8,1.6,5.6v.5s-4.2,0-4.2,0v-.6c0-1.4-.3-2.4-.8-2.8-.5-.4-1.8-.6-3.7-.6s-4.2.3-4.7,1-.8,2.5-.8,5.7.2,6.7.7,7.5c.5.8,2,1.2,4.6,1.2s3.4-.2,4.1-.6c.6-.4.9-1.4.9-2.8v-1Z"/>
    <path class="st0" d="M148,19.7c4,0,6.6.7,7.7,2,1.2,1.3,1.7,4.3,1.7,8.9s-.6,8.2-1.7,9.6c-1.2,1.3-4,2-8.4,2s-6.6-.6-7.8-1.9c-1.2-1.3-1.8-4.2-1.8-8.6s.6-8.6,1.7-9.9c1.2-1.3,4-2,8.5-2ZM147.6,23.3c-2.8,0-4.5.4-4.9,1.1s-.7,3.2-.7,7.5.3,5.1.8,5.7c.6.6,2.2,1,4.9,1s4.2-.4,4.7-1.1c.5-.7.8-2.9.8-6.6s-.2-5.9-.7-6.6c-.5-.7-2.1-1-4.8-1Z"/>
    <path class="st0" d="M174.5,19.9h4.2v14.7c0,3.1-.6,5.1-1.8,6.1-1.2,1-3.6,1.5-7.2,1.5s-6.4-.5-7.6-1.4-1.8-2.9-1.8-5.9v-14.9h4.2v14.9c0,1.6.3,2.7.9,3.1s2,.7,4.1.7,3.6-.2,4.2-.7c.6-.4.8-1.5.8-3.3v-14.8Z"/>
    <path class="st0" d="M191.3,23.7v18.3h-4.2v-18.3h-6.4v-3.8h17.2v3.8h-6.6Z"/>
    <path class="st0" d="M200.1,42v-22.1h10.9c3.1,0,5.2.7,6.5,2,1.2,1.3,1.9,3.7,1.9,7.1,0,5.5-.5,9.1-1.5,10.6s-3.2,2.4-6.7,2.4h-11ZM204.3,38.5h6c2,0,3.3-.5,3.9-1.4s.9-3,.9-6.1-.3-5.3-.8-6.2c-.5-.9-1.8-1.3-3.7-1.3h-6.2v15Z"/>
    <path class="st0" d="M231.5,19.7c4,0,6.6.7,7.7,2,1.2,1.3,1.7,4.3,1.7,8.9s-.6,8.2-1.7,9.6c-1.2,1.3-4,2-8.4,2s-6.6-.6-7.8-1.9c-1.2-1.3-1.8-4.2-1.8-8.6s.6-8.6,1.7-9.9c1.2-1.3,4-2,8.5-2ZM231.2,23.3c-2.8,0-4.5.4-4.9,1.1s-.7,3.2-.7,7.5.3,5.1.8,5.7c.6.6,2.2,1,4.9,1s4.2-.4,4.7-1.1c.5-.7.8-2.9.8-6.6s-.2-5.9-.7-6.6c-.5-.7-2.1-1-4.8-1Z"/>
    <path class="st0" d="M253,19.7c4,0,6.6.7,7.7,2,1.2,1.3,1.7,4.3,1.7,8.9s-.6,8.2-1.7,9.6c-1.2,1.3-4,2-8.4,2s-6.6-.6-7.8-1.9c-1.2-1.3-1.8-4.2-1.8-8.6s.6-8.6,1.7-9.9c1.2-1.3,4-2,8.5-2ZM252.6,23.3c-2.8,0-4.5.4-4.9,1.1s-.7,3.2-.7,7.5.3,5.1.8,5.7c.6.6,2.2,1,4.9,1s4.2-.4,4.7-1.1c.5-.7.8-2.9.8-6.6s-.2-5.9-.7-6.6c-.5-.7-2.1-1-4.8-1Z"/>
    <path class="st0" d="M265.3,42v-22.1h10.9c2.7,0,4.6.5,5.6,1.4,1,.9,1.5,2.6,1.5,5.1s-.3,3.8-.8,4.6c-.5.8-1.6,1.4-3.1,1.7h0c2.4.3,3.7,1.7,3.7,4.4v4.9h-4.2v-4c0-2.3-1.1-3.4-3.4-3.4h-6v7.4h-4.2ZM269.5,31h6c1.4,0,2.4-.3,2.9-.8s.7-1.5.7-3.1-.2-2.6-.6-3-1.3-.7-2.7-.7h-6.3v7.6Z"/>
    <path class="st0" d="M303,26.4h-4.1c0-.2,0-.4,0-.5,0-1.2-.4-2-.8-2.3-.5-.3-1.5-.5-3.2-.5s-3.3.2-3.9.5c-.6.4-.9,1.1-.9,2.3s.2,2.2.7,2.5c.5.3,2.1.5,4.9.6,3.3.2,5.4.7,6.4,1.4,1,.8,1.4,2.3,1.4,4.7s-.6,4.8-1.7,5.7c-1.1.9-3.6,1.3-7.5,1.3s-5.8-.4-6.9-1.3-1.7-2.5-1.7-5.1v-.8s4.1,0,4.1,0v.5c0,1.5.3,2.5.8,2.8.5.3,2,.5,4.4.5s3.1-.2,3.6-.6.8-1.3.8-2.8-.2-1.8-.6-2.1-1.2-.6-2.5-.6h-2.3c-3.5-.4-5.7-.8-6.7-1.6-1-.8-1.5-2.4-1.5-4.9s.6-4.3,1.8-5.2,3.5-1.3,7-1.3,5.6.4,6.7,1.2c1.2.8,1.7,2.3,1.7,4.6v.8Z"/>
  </g>
  <path class="st0" d="M24.2,14.4s0,0,0,0c0,0-.1,1.8-.2,2.2-.2.9.1,2.4,0,2.9,0,1.1,0,2.2.3,2.7,0,.2.2.6.2,1.1,0,.4.3,1.7.3,2.2.1,1.3.2,2.6.4,3.6,0,.5.2,1,.5,1.4.5.7,1.2,1.2,1.7,1.2.4,0,2,.6,2.9.9,0-.2-.1-.4-.1-.4,0,0-.3-.9-.2-1.2,0-.3.6-.6.7-.6.1,0,.2,0,.2,0,.2,0-.3.5-.3.8,0,.3.5,1,.6,1.3,0,.2.2.6.3.9,0,0,.1.1.1.1s0,0,0,0l1,1.1c0,0,.1.2.2.4,0,.1.3.5.4.5s0,0,0,0c0,0,.2-.1.3-.1,0,0,0,0,0,0,.1,0,.3.2.3.2,0,0,0,.3,0,.4,0,0,0,0,0,0l.3-.5.5-.3,1.2-.3,1.2.4.3.3.2.3s0,0,0,0c0-.1,0-.3,0-.4,0,0,.2-.2.3-.2s0,0,0,0c.1,0,.3.1.3.1,0,0,0,0,0,0,0,0,.3-.4.4-.5,0-.1.2-.3.2-.4l.8-.9c.2-.4.4-1,.5-1.2,0-.2.4-1,.4-1.1,0,0,.7-1.5.9-1.5s0,0,0,.1c0,.9.6.6.6.8,0,.1-.5,1.1-.5,1.2,0,0-.1.4,0,.7,1-.4,2.3-.8,2.7-.9.5,0,1.2-.6,1.7-1.2.2-.4.4-.9.5-1.4.2-1,.3-2.3.4-3.6,0-.5.4-1.8.3-2.2,0-.4-.1-.6-.2-.8,0-.2,0-.7,0-.9,0-.3,0-.8-.2-1.2,0-.1-.2-.3-.1-.3,0,0,0,0,0,0,0,0,.1,0,.2,0,.9.6.6,2.1,1,2.1,0,0,0,0,0,0,.4,0,.9-1.2,1-1.9.1-.7.1-2.3.2-2.5,0-.2.3-2.3,0-3.2,0,0-.1-.2,0-.2,0,0,0,0,0,0,0,0,.1,0,.2.1.2.2.5.8.6,1.2.2,1.4,0,2.6,0,3.2,0,.8-.2,2.1-.4,3.1-.3,1-.5,1.2-.6,1.5-.1.3-1.3,3.5-.6,4.1,0,0,.2,0,.3,0,.6,0,1.5-1.2,1.8-1.6.3-.5,1-2.1,1-3.1,0-1,.6-2.6.7-3,0-.5.3-1.4.2-1.7,0-.3,0-.4,0-.4,0,0,0-1,0-1s0,0,0,0c0,.1.4,1.1.4,1.5,0,.3.1.7.2.9,0,.2,0,1,0,1.4,0,.4,0,1.3-.1,1.8,0,.5-.3,1.3,0,1.3,0,0,0,0,0,0,.7,0,1.4-1.3,1.6-2.5.2-1.2.2-1.4.3-1.9,0-.1,0-.2,0-.2.1,0,.3.5.3,1.1,0,.7.1,1.8-.2,2.8-.3.9-1.1,2.1-1.4,2.3-.2.2-.7.6-.9,1-.3.4-1.6,2.3-2.5,2.8-.3.2-.8.3-1,.5-.2.2-.4.5-.4.5-.2.3-.9.8-.9,1.2,0,0,0,0,0,0,.1.3.7.5,1.2.6.4,0,.8.1,1.1.1s.3,0,.4,0c.3-.1,1.2-1.2,1.8-1.7.6-.4,2-.8,2.6-1.4.4-.4,1.4-1.2,1.5-2,0-.5.1-1.3.2-1.8,0-.3,0-.5,0-.5,0,0,0,0,0,0,0,0,.2.5.3.8,0,.2.5,2.4,0,3.1-.5.6-1,1.4-1.8,1.8-.8.4-1.9,1-2.1,1.3-.2.3-1.2,1-1.3,1.4,0,.3.3.7.6,1.1.3.5.9,1.5.2,2.3-.6.7-1.8,1.5-2.5,1.5s0,0,0,0c-.7,0-1.6-.5-2.4-.6-.2,0-.4,0-.6,0-.5,0-.8,0-.9,0,0,0,0,0,0,0-.1,0-.2-.2,0-.3.1,0,.7-.7,1.6-.7s.1,0,.2,0c.9,0,1.8.3,2.2.3s0,0,0,0c.3,0,1.1-.9,1.2-1.2,0-.3-.6-1.1-1.1-1.5-1.1-.6-2.7-1-3.6-1,0,0-.1,0-.2,0-1,0-4.3,1-4.7,1.3-.4.3-1.9,2.2-2,2.3,0,.1.1.5,0,.6,0,0,0,.2-.2.2s0,0,0,0c-.1,0-.2,0-.3,0h0s-.2.3-.2.3l-.3.6.4.6.8.3.2.5-.2.2-.3-.4-.4.2s-.5.8-.7,1c-.2.1-.9.3-.9.3,0,0,.6.6.8.6,0,0,.2,0,.3,0,.3,0,.5,0,.5,0l.7-1h.3s-.6,1.4-.6,1.4l-.9.5v.9s-.5,1.3-.5,1.3v2.4c-.1,0-.4.5-.4.8,0,.3-.3,1.9-.3,1.9,0,0-.3-1.6-.3-1.9,0-.3.2-1.3.2-1.3l-.3-4.5h0c0-.1.1,3.9.1,3.9v1.6c-.1,0-.4.8-.4.8l-.2-7.1v-.2c0,0-.2,6.3-.2,6.3l-.2-.5v-4.6c0,0-.1-.2-.1-.2v3.8c-.1,0,0,2.9,0,2.9v2.3s-.2-1.4-1-1.9c0-.3,0-1,0-1.6,0-.3-.3-.5-.3-.5v-2.4c-.1,0-.6-1.3-.6-1.3v-.9s-1-.5-1-.5l-.6-1.3h.3s.7.9.7.9c0,0,.3,0,.5,0s.2,0,.3,0c.2,0,.8-.6.8-.6,0,0-.7-.2-.9-.3-.2-.1-.7-1-.7-1l-.4-.2-.3.4h-.2c0-.1.2-.7.2-.7l.8-.2.4-.6-.3-.6-.3-.3h0c-.1,0-.2,0-.4,0,0,0,0,0,0,0-.2,0-.2-.1-.2-.2,0,0,.1-.5,0-.6,0-.1-1.6-2.1-2-2.3-.4-.3-3.6-1.2-4.7-1.3,0,0-.1,0-.2,0-1.1,0-2.9.6-4,1.3-.3.2-.5.7-.3,1,.2.3,1.1.5,1.3.6.7.5,1,1.3,1.1,2,.2,1,0,1.9-.2,1.9s0,0-.1-.2c-.2-.5-.5-1.2-.8-1.6-.3-.5-.8-.9-1.1-1.1-.3-.2-1.4-.5-1.7-.7-.3-.2-.9-1.1-.1-2,.3-.4.5-.8.5-1.1,0-.3-.5-1.1-1.3-1.6-.6-.4-1.3-.5-1.9-1-.8-.7-1.9-1.7-2.2-3.3,0-.5.3-1.1.5-1.7.2-.6.7-1.1.8-1.1s0,0,0,0c.1,0-.1.6-.2,1.2,0,.4,0,.9.1,1.2.2,1.3.8,1.8,1.6,2.5.6.4,1.3.7,2,1,1.1.5,1.5,1.6,1.8,1.7,0,0,.2,0,.3,0,.3,0,.8,0,1.2-.2.5-.1,1-.3,1-.5,0-.2-.6-.9-.8-1.2,0,0-.2-.3-.4-.5-.2-.2-.7-.4-1-.5-.5-.2-1.3-.9-1.9-1.6-.6-.6-1.8-1.8-2-2.3-.4-1.1-.4-1.5-.5-2.6,0-.2-.3-1.1-.3-1.3,0-.5.3-.9.4-1.3.1-.4.3-.7.3-1,.3-.8,1.1-1.6,1.2-1.7,0,0,.2-.1.2-.1s0,0,0,0c0,0-.3.4-.5.9-.7,1.6-.2,3.8-.1,4.1.3.9.2,1.7.7,2.4.6.9,1.2,1.2,1.8,1.7.4.3,1.3,1.3,2,1.3s.2,0,.3,0c.6-.3.1-2.2-.2-3.2-.1-.4-.5-.9-.6-1.2-.1-.3-.5-.7-.7-.8-.3-.2-.5-.3-1.1-.8-.6-.5-.5-.5-1-1.1-.3-.3-.3-.4-.2-.4s.3.1.4.2c.3.2.6.5,1,.8.4.3.9.6,1.1.6,0,0,0,0,.1,0,.1,0,0-.1,0-.4,0-.3,0-.6,0-.8,0-.2,0-.4-.6-.8-.3-.2-.3-.3-.2-.3s.2,0,.3,0c.2,0,.4.2.6.2s0,0,0,0c.2,0,.2-.5.3-1,0-.6.3-1.1.4-1.4.3-1.1.6-2.2.7-2.2,0,0,.3-.3.3-.3M40.7,43.3s0,0,0,0c0,0,0,0,0,0,0,0,0,0,0,0"/>
</svg>